<svg width="16" height="16" viewBox="0 0 16 16" fill="none" xmlns="http://www.w3.org/2000/svg">
<path d="M1.28893 10.9998C1.27714 11.0191 1.34149 9.59743 1.39813 9.20163C1.43076 8.97366 1.49249 8.67545 1.5539 8.46403C1.6047 8.28918 1.68572 7.98746 1.75611 7.8319C1.82891 7.67101 1.88935 7.51792 1.97278 7.37154C2.03656 7.25963 2.23245 6.9544 2.23245 6.9544C2.23245 6.94812 2.32886 6.82548 2.50602 6.58045C2.58981 6.46455 2.71586 6.31484 2.80371 6.20732C2.896 6.09435 3.01022 5.97422 3.10724 5.87246C3.19961 5.77556 3.32545 5.66935 3.42244 5.58543C3.51699 5.50363 3.76682 5.32711 3.76682 5.32711C3.76682 5.32711 3.8561 5.25703 4.06354 5.14374C4.30141 5.01382 4.41376 4.96036 4.41376 4.96036L4.77858 4.81685L5.25096 4.66511L5.79102 4.5202C5.79102 4.5202 6.57111 4.39392 6.59987 4.38449C6.62864 4.37506 7.73671 4.30154 7.74247 4.30154C7.7463 4.30154 8.17682 4.30651 9.034 4.31645C9.67584 4.3818 10.1488 4.4464 10.4529 4.51025C10.7229 4.56696 11.0323 4.59493 11.6534 4.86804C11.9552 5.00071 12.9999 5.56839 12.9999 5.56839C13.0038 5.56839 12.8667 5.43369 12.5888 5.1643C12.4202 5.04148 12.1242 4.7942 12.0159 4.70164C11.8663 4.57365 11.315 4.20976 11.0611 4.09762C10.9331 4.04103 10.4201 3.78957 10.104 3.66964C9.78853 3.54991 9.04249 3.34812 9.04249 3.34812L7.87595 3.09478C7.87595 3.09478 6.6174 2.98713 6.07773 3.00128C5.59719 3.01388 4.95517 3.06227 4.47895 3.16845C4.26167 3.21689 3.97434 3.3152 3.76356 3.41431C3.58986 3.49599 3.36403 3.63723 3.19816 3.75474C3.0317 3.87269 2.81398 4.04769 2.65757 4.19813C2.49274 4.35668 2.2818 4.59338 2.13084 4.78549C2.00686 4.94327 1.85112 5.14772 1.74351 5.33501C1.63362 5.5263 1.52727 5.79027 1.42106 5.98708C1.41807 5.99263 1.29278 6.28994 1.16736 6.83753C1.11011 7.08749 1.02957 7.75644 1.00919 8.02133C0.978222 8.42383 1.03113 9.48532 1.08457 9.88145C1.1468 10.3428 1.30098 10.9998 1.28893 10.9998V10.9998Z" fill="#63A464" stroke="#63A464" stroke-width="0.5"/>
<path d="M3.87049 11.61C4.04359 11.6747 4.24193 11.7596 4.39423 11.7976C4.59067 11.8466 4.81996 11.905 5.01699 11.9446C5.21629 11.9847 5.65554 12.058 5.65554 12.058C5.65554 12.058 6.18881 12.1399 6.38891 12.1678C6.62988 12.2015 6.91799 12.2336 7.15936 12.2541C7.4582 12.2796 7.69213 12.2778 8.15747 12.2778C8.1827 12.2778 8.49779 12.2813 9.10154 12.2278C9.40225 12.2012 9.80293 12.1527 10.1029 12.1055C10.3275 12.0701 10.6272 12.0229 10.8502 11.9614C11.0617 11.903 11.3418 11.7997 11.5502 11.7092C11.7105 11.6395 11.9244 11.5418 12.0798 11.439C12.2696 11.3136 12.5095 11.156 12.6866 10.9755C12.8059 10.8538 12.988 10.6849 13.0986 10.5361C13.1862 10.4182 13.3157 10.2639 13.3993 10.136C13.5092 9.96779 13.6416 9.72907 13.7454 9.54753C13.8312 9.39766 13.9271 9.13152 14.005 8.96695C14.0834 8.8015 14.1564 8.56834 14.2226 8.38455C14.2872 8.20486 14.3446 7.99233 14.391 7.79318C14.4466 7.55415 14.5265 7.16743 14.5675 6.91791C14.6029 6.70255 14.6341 6.4022 14.6615 6.18264C14.7054 5.83056 14.719 5.01401 14.7222 5.00347C14.7429 4.93549 14.9447 5.87891 14.967 6.62289C14.9725 6.80681 15.0014 7.33419 14.9999 7.56438C14.9978 7.89465 14.9862 8.21049 14.9793 8.47448C14.973 8.71885 14.8944 9.39229 14.8594 9.62769C14.8123 9.94397 14.6654 10.5047 14.5882 10.7393C14.4917 11.0325 14.3153 11.4429 14.1797 11.6732C14.0142 11.9541 13.693 12.3821 13.6122 12.4477C13.6064 12.4524 13.3865 12.7043 12.9077 13.1229C12.6717 13.3293 12.3886 13.5073 12.138 13.6376C11.922 13.75 11.4067 13.9324 11.1835 13.9664C10.9835 13.9969 10.0434 13.9917 9.98866 14C9.61538 13.9952 8.98276 13.9969 8.6703 13.9637C8.43099 13.9384 8.03387 13.8802 7.72276 13.7931C7.4749 13.7237 7.09193 13.6166 6.84518 13.5342C6.60669 13.4545 6.189 13.2908 5.95113 13.2047C5.66958 13.1026 5.49453 13.0065 5.21539 12.8827C5.01361 12.7932 4.73261 12.636 4.53559 12.514C4.33174 12.3877 3.93592 12.1285 3.74288 11.9511C3.4974 11.7254 3.0091 11.3069 3.00008 11.2124C2.99187 11.1265 3.6311 11.5206 3.87049 11.61V11.61Z" fill="#63A464" stroke="#63A464" stroke-width="0.5"/>
<path d="M8 6H6V8H8V6Z" fill="#62A46C"/>
<path d="M11 9H9V11H11V9Z" fill="#62A46C"/>
<path d="M10 7H9V8H10V7Z" fill="#1C437F"/>
</svg>
