<svg width="128" height="60" viewBox="0 0 128 60" fill="none" xmlns="http://www.w3.org/2000/svg">
<g clip-path="url(#clip0_5_10)">
<path d="M3.24122 24.7693C3.1719 24.8256 3.55018 20.6831 3.88311 19.5298C4.07487 18.8655 4.43775 17.9966 4.79874 17.3806C5.0973 16.8711 5.5736 15.9919 5.9873 15.5387C6.41523 15.0699 6.77051 14.6238 7.26091 14.1973C7.63583 13.8712 8.78728 12.9818 8.78728 12.9818C8.78728 12.9635 9.35401 12.6062 10.3954 11.8922C10.8879 11.5545 11.6288 11.1183 12.1452 10.805C12.6877 10.4758 13.3591 10.1258 13.9294 9.82927C14.4724 9.54693 15.2121 9.23746 15.7822 8.99295C16.3379 8.75459 17.8065 8.24026 17.8065 8.24026C17.8065 8.24026 18.3313 8.03605 19.5506 7.70594C20.9488 7.3274 21.6093 7.17162 21.6093 7.17162L23.7537 6.75346L26.5303 6.31132L29.7049 5.88907C29.7049 5.88907 34.2903 5.52112 34.4594 5.49364C34.6285 5.46616 41.1418 5.25195 41.1757 5.25195C41.1982 5.25195 43.7288 5.26643 48.7674 5.29539C52.5402 5.48581 55.3203 5.67404 57.1076 5.86009C58.695 6.02533 60.5136 6.10682 64.1648 6.90262C65.9382 7.28917 72.0794 8.94327 72.0794 8.94327C72.102 8.94327 71.2965 8.5508 69.6631 7.76585C68.672 7.40798 66.9317 6.68745 66.2955 6.41776C65.4157 6.04482 62.1752 4.98452 60.6832 4.65776C59.9303 4.49289 56.915 3.76018 55.0572 3.41072C53.2026 3.06186 48.8173 2.47388 48.8173 2.47388L41.9603 1.7357C41.9603 1.7357 34.5624 1.42204 31.3902 1.46327C28.5655 1.49999 24.7917 1.64098 21.9924 1.95036C20.7152 2.09151 19.0263 2.37797 17.7873 2.66676C16.7663 2.90473 15.4388 3.31628 14.4638 3.6587C13.4854 4.00236 12.2056 4.51229 11.2862 4.95064C10.3173 5.41262 9.07737 6.10231 8.19 6.66208C7.46125 7.12181 6.54579 7.71753 5.91328 8.26327C5.26729 8.82063 4.64217 9.58981 4.01789 10.1633C4.00029 10.1794 3.26381 11.0457 2.5266 12.6413C2.1901 13.3696 1.71664 15.3188 1.59685 16.0906C1.41483 17.2634 1.72584 20.3564 2.03993 21.5106C2.40574 22.8549 3.31202 24.7693 3.24122 24.7693V24.7693Z" fill="#63A464" stroke="#63A464" stroke-width="0.5"/>
<path d="M60.5856 53.6484C61.6198 53.8132 62.8048 54.0298 63.7147 54.1266C64.8883 54.2516 66.2583 54.4003 67.4354 54.5013C68.6261 54.6035 71.2504 54.7903 71.2504 54.7903C71.2504 54.7903 74.4365 54.999 75.632 55.0703C77.0717 55.1561 78.793 55.2379 80.2351 55.2903C82.0205 55.3551 83.4181 55.3505 86.1983 55.3505C86.349 55.3505 88.2315 55.3596 91.8386 55.2232C93.6353 55.1553 96.0291 55.0318 97.8216 54.9113C99.1632 54.8212 100.954 54.7009 102.286 54.544C103.55 54.3952 105.223 54.132 106.468 53.9012C107.426 53.7235 108.704 53.4744 109.633 53.2124C110.766 52.8926 112.2 52.4909 113.258 52.0308C113.971 51.7206 115.059 51.29 115.719 50.9108C116.242 50.6102 117.016 50.217 117.516 49.8908C118.173 49.4621 118.963 48.8535 119.584 48.3908C120.096 48.0087 120.669 47.3303 121.134 46.9108C121.603 46.489 122.039 45.8947 122.434 45.4261C122.821 44.9681 123.164 44.4263 123.441 43.9186C123.773 43.3093 124.25 42.3235 124.495 41.6875C124.707 41.1385 124.893 40.3728 125.057 39.8131C125.319 38.9156 125.4 36.8341 125.42 36.8073C125.543 36.634 126.749 39.0389 126.882 40.9354C126.915 41.4042 127.088 42.7486 127.079 43.3354C127.066 44.1773 126.997 44.9824 126.956 45.6554C126.918 46.2783 126.448 47.995 126.239 48.5951C125.958 49.4013 125.08 50.8307 124.619 51.4288C124.042 52.1761 122.989 53.2224 122.178 53.8093C121.19 54.5254 119.271 55.6166 118.788 55.7837C118.753 55.7957 117.439 56.4378 114.579 57.5049C113.168 58.0311 111.477 58.4848 109.98 58.8171C108.69 59.1034 105.611 59.5685 104.277 59.6552C103.082 59.7328 97.4661 59.7195 97.1388 59.7408C94.9086 59.7286 91.129 59.7329 89.2622 59.6484C87.8324 59.5836 85.4598 59.4353 83.6011 59.2133C82.1202 59.0365 79.8322 58.7635 78.358 58.5533C76.9331 58.3502 74.4376 57.933 73.0164 57.7133C71.3343 57.4533 70.2885 57.2082 68.6208 56.8926C67.4152 56.6645 65.7364 56.2636 64.5592 55.9526C63.3414 55.6308 60.9765 54.97 59.8232 54.5177C58.3565 53.9425 55.4392 52.8757 55.3853 52.6348C55.3362 52.4158 59.1554 53.4204 60.5856 53.6484V53.6484Z" fill="#63A464" stroke="#63A464" stroke-width="0.5"/>
<path d="M99 9H91V17H99V9Z" fill="#62A46C"/>
<path d="M108 18H100V26H108V18Z" fill="#62A46C"/>
<path d="M107 10H101V16H107V10Z" fill="#1C437F"/>
<path d="M23.7293 25.9189V12.828H26.4971V18.2293H32.1157V12.828H34.8771V25.9189H32.1157V20.5112H26.4971V25.9189H23.7293ZM41.5823 26.1106C40.5724 26.1106 39.7031 25.9061 38.9744 25.497C38.2499 25.0837 37.6917 24.4999 37.2996 23.7456C36.9076 22.9871 36.7116 22.09 36.7116 21.0545C36.7116 20.0446 36.9076 19.1582 37.2996 18.3954C37.6917 17.6327 38.2435 17.0382 38.9552 16.6121C39.6711 16.1859 40.5106 15.9729 41.4737 15.9729C42.1214 15.9729 42.7244 16.0773 43.2826 16.2861C43.8451 16.4906 44.3352 16.7996 44.7528 17.2129C45.1746 17.6263 45.5028 18.1462 45.7371 18.7726C45.9715 19.3947 46.0887 20.1234 46.0887 20.9587V21.7065H37.7982V20.019H43.5255C43.5255 19.627 43.4403 19.2797 43.2698 18.9771C43.0994 18.6746 42.8629 18.4381 42.5603 18.2676C42.262 18.0929 41.9147 18.0055 41.5184 18.0055C41.105 18.0055 40.7386 18.1014 40.419 18.2932C40.1036 18.4807 39.8565 18.7342 39.6775 19.0538C39.4985 19.3692 39.4069 19.7207 39.4026 20.1085V21.7129C39.4026 22.1987 39.4921 22.6185 39.6711 22.9722C39.8543 23.3258 40.1121 23.5986 40.4445 23.7903C40.7769 23.9821 41.1711 24.078 41.6271 24.078C41.9296 24.078 42.2066 24.0354 42.458 23.9501C42.7095 23.8649 42.9246 23.7371 43.1036 23.5666C43.2826 23.3962 43.419 23.1874 43.5127 22.9402L46.0312 23.1064C45.9033 23.7115 45.6413 24.2399 45.245 24.6916C44.8529 25.1391 44.3458 25.4885 43.7237 25.7399C43.1058 25.9871 42.392 26.1106 41.5823 26.1106ZM50.5887 12.828V25.9189H47.8657V12.828H50.5887ZM52.77 29.6007V16.1007H55.4547V17.7498H55.5761C55.6954 17.4856 55.868 17.2172 56.0939 16.9445C56.324 16.6675 56.6223 16.4374 56.9887 16.2541C57.3595 16.0666 57.8197 15.9729 58.3694 15.9729C59.0853 15.9729 59.7458 16.1604 60.351 16.5354C60.9561 16.9061 61.4397 17.4665 61.802 18.2165C62.1642 18.9622 62.3453 19.8976 62.3453 21.0226C62.3453 22.1177 62.1684 23.0425 61.8147 23.7967C61.4653 24.5467 60.988 25.1156 60.3829 25.5034C59.7821 25.8869 59.1088 26.0787 58.363 26.0787C57.8346 26.0787 57.3851 25.9913 57.0143 25.8166C56.6478 25.6419 56.3474 25.4224 56.113 25.1582C55.8787 24.8898 55.6997 24.6192 55.5761 24.3464H55.493V29.6007H52.77ZM55.4355 21.0098C55.4355 21.5936 55.5164 22.1028 55.6784 22.5375C55.8403 22.9722 56.0747 23.3109 56.3815 23.5538C56.6883 23.7925 57.0612 23.9118 57.5001 23.9118C57.9433 23.9118 58.3183 23.7903 58.6251 23.5474C58.9319 23.3003 59.1642 22.9594 59.3218 22.5247C59.4838 22.0858 59.5647 21.5808 59.5647 21.0098C59.5647 20.443 59.4859 19.9445 59.3282 19.5141C59.1706 19.0837 58.9383 18.747 58.6315 18.5041C58.3247 18.2612 57.9476 18.1398 57.5001 18.1398C57.0569 18.1398 56.6819 18.257 56.3751 18.4913C56.0726 18.7257 55.8403 19.0581 55.6784 19.4885C55.5164 19.9189 55.4355 20.426 55.4355 21.0098Z" fill="rgb(22, 37, 51)"/>
<path d="M43.4833 35.3547H40.6836C40.6325 34.9925 40.5281 34.6708 40.3704 34.3895C40.2127 34.104 40.0103 33.8611 39.7631 33.6608C39.516 33.4606 39.2305 33.3072 38.9066 33.2006C38.587 33.0941 38.2397 33.0408 37.8647 33.0408C37.1872 33.0408 36.597 33.2091 36.0941 33.5458C35.5913 33.8782 35.2014 34.364 34.9244 35.0032C34.6474 35.6381 34.5089 36.4094 34.5089 37.3171C34.5089 38.2503 34.6474 39.0344 34.9244 39.6694C35.2056 40.3043 35.5977 40.7837 36.1005 41.1076C36.6033 41.4314 37.185 41.5934 37.8455 41.5934C38.2163 41.5934 38.5593 41.5444 38.8747 41.4464C39.1943 41.3483 39.4776 41.2056 39.7248 41.0181C39.972 40.8263 40.1765 40.5941 40.3384 40.3214C40.5046 40.0486 40.6197 39.7375 40.6836 39.3881L43.4833 39.4009C43.4109 40.0018 43.2298 40.5813 42.94 41.1395C42.6545 41.6935 42.2688 42.19 41.783 42.6289C41.3015 43.0635 40.7262 43.4087 40.0572 43.6644C39.3924 43.9158 38.6403 44.0415 37.8008 44.0415C36.6332 44.0415 35.5891 43.7773 34.6687 43.2489C33.7525 42.7205 33.0281 41.9556 32.4954 40.9542C31.967 39.9527 31.7028 38.7404 31.7028 37.3171C31.7028 35.8895 31.9712 34.675 32.5082 33.6736C33.0451 32.6722 33.7738 31.9094 34.6943 31.3853C35.6147 30.8569 36.6502 30.5927 37.8008 30.5927C38.5593 30.5927 39.2624 30.6992 39.9102 30.9123C40.5622 31.1253 41.1396 31.4364 41.6424 31.8455C42.1452 32.2503 42.5543 32.7468 42.8697 33.3348C43.1893 33.9229 43.3938 34.5962 43.4833 35.3547ZM49.853 44.0543C48.8601 44.0543 48.0014 43.8434 47.277 43.4215C46.5568 42.9954 46.0007 42.403 45.6087 41.6445C45.2166 40.8817 45.0206 39.9975 45.0206 38.9918C45.0206 37.9776 45.2166 37.0912 45.6087 36.3327C46.0007 35.5699 46.5568 34.9776 47.277 34.5557C48.0014 34.1296 48.8601 33.9165 49.853 33.9165C50.8459 33.9165 51.7024 34.1296 52.4226 34.5557C53.147 34.9776 53.7053 35.5699 54.0973 36.3327C54.4894 37.0912 54.6854 37.9776 54.6854 38.9918C54.6854 39.9975 54.4894 40.8817 54.0973 41.6445C53.7053 42.403 53.147 42.9954 52.4226 43.4215C51.7024 43.8434 50.8459 44.0543 49.853 44.0543ZM49.8658 41.9449C50.3175 41.9449 50.6946 41.8171 50.9972 41.5614C51.2997 41.3015 51.5277 40.9478 51.6811 40.5003C51.8388 40.0529 51.9176 39.5437 51.9176 38.9726C51.9176 38.4016 51.8388 37.8924 51.6811 37.4449C51.5277 36.9975 51.2997 36.6438 50.9972 36.3839C50.6946 36.1239 50.3175 35.9939 49.8658 35.9939C49.4098 35.9939 49.0263 36.1239 48.7152 36.3839C48.4084 36.6438 48.1761 36.9975 48.0185 37.4449C47.8651 37.8924 47.7884 38.4016 47.7884 38.9726C47.7884 39.5437 47.8651 40.0529 48.0185 40.5003C48.1761 40.9478 48.4084 41.3015 48.7152 41.5614C49.0263 41.8171 49.4098 41.9449 49.8658 41.9449ZM59.179 38.1864V43.8625H56.456V34.0444H59.0511V35.7766H59.1662C59.3835 35.2056 59.7479 34.7539 60.2592 34.4215C60.7706 34.0848 61.3906 33.9165 62.1193 33.9165C62.8011 33.9165 63.3956 34.0657 63.9027 34.364C64.4098 34.6623 64.804 35.0884 65.0852 35.6424C65.3665 36.1921 65.5071 36.8483 65.5071 37.6111V43.8625H62.7841V38.0969C62.7884 37.4961 62.6349 37.0273 62.3239 36.6907C62.0128 36.3498 61.5845 36.1793 61.0391 36.1793C60.6726 36.1793 60.3487 36.2581 60.0675 36.4158C59.7905 36.5735 59.5732 36.8036 59.4155 37.1062C59.2621 37.4045 59.1832 37.7645 59.179 38.1864ZM76.4551 34.0444L73.0226 43.8625H69.9544L66.5218 34.0444H69.3983L71.4373 41.0692H71.5396L73.5723 34.0444H76.4551ZM82.0066 44.0543C80.9966 44.0543 80.1273 43.8498 79.3986 43.4407C78.6742 43.0273 78.116 42.4435 77.7239 41.6893C77.3319 40.9307 77.1358 40.0337 77.1358 38.9982C77.1358 37.9883 77.3319 37.1019 77.7239 36.3391C78.116 35.5763 78.6678 34.9819 79.3794 34.5557C80.0954 34.1296 80.9348 33.9165 81.8979 33.9165C82.5456 33.9165 83.1486 34.0209 83.7069 34.2297C84.2694 34.4343 84.7594 34.7432 85.177 35.1566C85.5989 35.5699 85.927 36.0898 86.1614 36.7162C86.3958 37.3384 86.513 38.0671 86.513 38.9023V39.6502H78.2225V37.9627H83.9498C83.9498 37.5706 83.8645 37.2233 83.6941 36.9208C83.5236 36.6182 83.2871 36.3817 82.9846 36.2113C82.6863 36.0366 82.339 35.9492 81.9427 35.9492C81.5293 35.9492 81.1628 36.0451 80.8432 36.2368C80.5279 36.4243 80.2807 36.6779 80.1017 36.9975C79.9228 37.3128 79.8311 37.6644 79.8269 38.0522V39.6566C79.8269 40.1424 79.9164 40.5621 80.0954 40.9158C80.2786 41.2695 80.5364 41.5422 80.8688 41.734C81.2012 41.9258 81.5954 42.0216 82.0513 42.0216C82.3539 42.0216 82.6309 41.979 82.8823 41.8938C83.1337 41.8086 83.3489 41.6807 83.5279 41.5103C83.7069 41.3398 83.8432 41.131 83.937 40.8839L86.4554 41.05C86.3276 41.6552 86.0655 42.1836 85.6692 42.6353C85.2772 43.0827 84.7701 43.4322 84.1479 43.6836C83.53 43.9307 82.8162 44.0543 82.0066 44.0543ZM88.29 43.8625V34.0444H90.9299V35.7574H91.0321C91.2111 35.1481 91.5115 34.6878 91.9334 34.3768C92.3553 34.0614 92.8411 33.9037 93.3908 33.9037C93.5272 33.9037 93.6742 33.9123 93.8319 33.9293C93.9895 33.9464 94.128 33.9698 94.2473 33.9996V36.4158C94.1195 36.3775 93.9427 36.3434 93.7168 36.3135C93.491 36.2837 93.2843 36.2688 93.0968 36.2688C92.6962 36.2688 92.3383 36.3562 92.0229 36.5309C91.7118 36.7013 91.4647 36.94 91.2814 37.2468C91.1025 37.5536 91.013 37.9073 91.013 38.3079V43.8625H88.29ZM99.6215 47.7489C98.7394 47.7489 97.983 47.6275 97.3523 47.3846C96.7259 47.1459 96.2273 46.8199 95.8565 46.4066C95.4858 45.9932 95.245 45.5287 95.1342 45.0131L97.6527 44.6743C97.7294 44.8704 97.8509 45.0536 98.0171 45.2241C98.1832 45.3945 98.4027 45.5309 98.6754 45.6331C98.9524 45.7397 99.2891 45.7929 99.6854 45.7929C100.278 45.7929 100.766 45.6481 101.149 45.3583C101.537 45.0728 101.731 44.5934 101.731 43.9201V42.1239H101.616C101.496 42.3966 101.317 42.6545 101.079 42.8973C100.84 43.1402 100.533 43.3384 100.158 43.4918C99.7834 43.6452 99.3359 43.7219 98.8161 43.7219C98.0788 43.7219 97.4077 43.5515 96.8026 43.2106C96.2017 42.8654 95.7223 42.3391 95.3644 41.6317C95.0107 40.9201 94.8338 40.0209 94.8338 38.9343C94.8338 37.8221 95.0149 36.8931 95.3771 36.1473C95.7394 35.4016 96.2209 34.8434 96.8217 34.4726C97.4269 34.1019 98.0895 33.9165 98.8097 33.9165C99.3594 33.9165 99.8196 34.0103 100.19 34.1978C100.561 34.381 100.859 34.6111 101.085 34.8881C101.315 35.1608 101.492 35.4293 101.616 35.6935H101.718V34.0444H104.422V43.9584C104.422 44.7937 104.217 45.4925 103.808 46.055C103.399 46.6175 102.832 47.0394 102.108 47.3206C101.388 47.6062 100.559 47.7489 99.6215 47.7489ZM99.679 41.6765C100.118 41.6765 100.489 41.5678 100.791 41.3505C101.098 41.1289 101.332 40.8135 101.494 40.4045C101.661 39.9911 101.744 39.4968 101.744 38.9215C101.744 38.3462 101.663 37.8476 101.501 37.4258C101.339 36.9996 101.104 36.6694 100.798 36.435C100.491 36.2006 100.118 36.0834 99.679 36.0834C99.2315 36.0834 98.8544 36.2049 98.5476 36.4478C98.2408 36.6864 98.0085 37.0188 97.8509 37.4449C97.6932 37.8711 97.6144 38.3633 97.6144 38.9215C97.6144 39.4883 97.6932 39.9783 97.8509 40.3917C98.0128 40.8008 98.245 41.1182 98.5476 41.3441C98.8544 41.5657 99.2315 41.6765 99.679 41.6765ZM111.063 44.0543C110.053 44.0543 109.184 43.8498 108.455 43.4407C107.731 43.0273 107.173 42.4435 106.781 41.6893C106.388 40.9307 106.192 40.0337 106.192 38.9982C106.192 37.9883 106.388 37.1019 106.781 36.3391C107.173 35.5763 107.724 34.9819 108.436 34.5557C109.152 34.1296 109.991 33.9165 110.955 33.9165C111.602 33.9165 112.205 34.0209 112.763 34.2297C113.326 34.4343 113.816 34.7432 114.234 35.1566C114.656 35.5699 114.984 36.0898 115.218 36.7162C115.452 37.3384 115.57 38.0671 115.57 38.9023V39.6502H107.279V37.9627H113.006C113.006 37.5706 112.921 37.2233 112.751 36.9208C112.58 36.6182 112.344 36.3817 112.041 36.2113C111.743 36.0366 111.396 35.9492 110.999 35.9492C110.586 35.9492 110.219 36.0451 109.9 36.2368C109.585 36.4243 109.337 36.6779 109.158 36.9975C108.979 37.3128 108.888 37.6644 108.884 38.0522V39.6566C108.884 40.1424 108.973 40.5621 109.152 40.9158C109.335 41.2695 109.593 41.5422 109.925 41.734C110.258 41.9258 110.652 42.0216 111.108 42.0216C111.411 42.0216 111.688 41.979 111.939 41.8938C112.19 41.8086 112.406 41.6807 112.585 41.5103C112.763 41.3398 112.9 41.131 112.994 40.8839L115.512 41.05C115.384 41.6552 115.122 42.1836 114.726 42.6353C114.334 43.0827 113.827 43.4322 113.205 43.6836C112.587 43.9307 111.873 44.0543 111.063 44.0543Z" fill="rgb(22, 37, 51)"/>
</g>
<defs>
<clipPath id="clip0_5_10">
<rect width="128" height="60" fill="white"/>
</clipPath>
</defs>
</svg>
