<svg width="151" height="162" viewBox="0 0 151 162" fill="none" xmlns="http://www.w3.org/2000/svg">
<path d="M118.125 87.7499C119.988 87.7499 121.5 86.2378 121.5 84.3748V3.37479C121.5 1.51211 119.988 0 118.125 0H43.8751C43.423 0 42.9841 0.0946055 42.5725 0.26325C42.3766 0.34425 42.2282 0.492645 42.0526 0.6075C41.8637 0.729 41.6476 0.823605 41.4856 0.985605L0.985605 41.4856C0.83025 41.641 0.742605 41.8501 0.621105 42.0324C0.499605 42.2146 0.34425 42.37 0.26325 42.5725C0.0946055 42.9841 0 43.4226 0 43.8751V158.625C0 160.488 1.51211 162 3.37511 162H118.125C119.988 162 121.5 160.488 121.5 158.625V138.375C121.5 136.512 119.988 135 118.125 135C116.262 135 114.75 136.512 114.75 138.375V155.25H6.74989V47.2499H43.8748C45.7378 47.2499 47.2499 45.7378 47.2499 43.8748V6.74989H114.75V84.3748C114.75 86.2381 116.262 87.7499 118.125 87.7499ZM40.5 40.5H11.5223L40.5 11.5223V40.5Z" fill="black"/>
<path d="M75.668 96.1406V126H70.0488V96.1406H75.668ZM84.9375 96.1406V100.591H60.8818V96.1406H84.9375ZM96.5416 96.1406L102.509 106.784L108.498 96.1406H114.978L106.119 110.947L115.204 126H108.662L102.509 115.151L96.3776 126H89.8151L98.9 110.947L90.0407 96.1406H96.5416ZM134.847 96.1406V126H129.228V96.1406H134.847ZM144.116 96.1406V100.591H120.061V96.1406H144.116Z" fill="black"/>
</svg>
